<svg width="25" height="25" viewBox="0 0 25 25" fill="none" xmlns="http://www.w3.org/2000/svg">
<rect x="1" y="1" width="23" height="23" stroke="black" stroke-width="2"/>
<path d="M12.8848 5.47063C12.4943 5.0801 11.8611 5.0801 11.4706 5.47063L5.1066 11.8346C4.71608 12.2251 4.71608 12.8583 5.10661 13.2488C5.49713 13.6393 6.13029 13.6393 6.52082 13.2488L12.1777 7.59195L17.8345 13.2488C18.2251 13.6393 18.8582 13.6393 19.2487 13.2488C19.6393 12.8583 19.6393 12.2251 19.2487 11.8346L12.8848 5.47063ZM12.1777 19.1777L13.1777 19.1777L13.1777 6.17773L12.1777 6.17773L11.1777 6.17773L11.1777 19.1777L12.1777 19.1777Z" fill="black"/>
</svg>
