<svg width="30" height="24" viewBox="0 0 30 24" fill="none" xmlns="http://www.w3.org/2000/svg">
<path d="M22 1.00001H23V5.30481e-06L22 5.06639e-06V1.00001ZM21.2929 23.7071C21.6834 24.0976 22.3166 24.0976 22.7071 23.7071L29.0711 17.3431C29.4616 16.9526 29.4616 16.3195 29.0711 15.9289C28.6805 15.5384 28.0474 15.5384 27.6569 15.9289L22 21.5858L16.3431 15.9289C15.9526 15.5384 15.3195 15.5384 14.9289 15.9289C14.5384 16.3195 14.5384 16.9526 14.9289 17.3431L21.2929 23.7071ZM0 1L-2.30728e-07 2L22 2.00001V1.00001V5.06639e-06L2.30728e-07 0L0 1ZM22 1.00001H21V23H22H23V1.00001H22Z" fill="black"/>
</svg>
